:version 1.10
:name ASF
:units
  mass 1
  length 1
  angle deg
:documentation
  ASF file generated by Kaydara
:root
  axis xyz
  order  tx ty tz rx ry rz
  position 0 0 0
  orientation 0 0 0
:bonedata
  begin
    id 1
    name RightUpLegDummy
    direction -1 2.30186e-007 8.31532e-007
    length 4.04083
    axis 0 0 0 xyz
  end
  begin
    id 2
    name RightUpLeg
    direction -0.000919234 -0.999985 0.00544864
    length 17.4221
    axis -3.80308 -0.00076134 -0.0523649 xyz
    dof rx ry rz
  end
  begin
    id 3
    name RightLeg
    direction -0.000919271 -0.999984 -0.00555045
    length 17.1239
    axis 4.00314 0.0181274 -0.183583 xyz
    dof rx ry rz
  end
  begin
    id 4
    name RightFoot
    direction -2.57843e-005 -4.04509e-007 1
    length 6.72091
    axis 8.18909e-005 -0.122003 -0.403008 xyz
    dof rx ry rz
  end
  begin
    id 5
    name RightToes
    direction 0.00116825 -0.014069 0.9999
    length 3.85082
    axis 0.000514414 0.540638 -0.356797 xyz
    dof rx ry rz
  end
  begin
    id 6
    name SpineDummy
    direction 0.0168869 0.966876 -0.254689
    length 6.99894
    axis 0 0 0 xyz
  end
  begin
    id 7
    name Spine
    direction -0.0132008 0.999903 0.00446247
    length 11.1999
    axis -0.00148109 0.00725429 0.756411 xyz
    dof rx ry rz
  end
  begin
    id 8
    name Spine1
    direction 0 0 0
    length 0
    axis -0.000934958 0.0245693 1.46543 xyz
    dof rx ry rz
  end
  begin
    id 9
    name HEadDummy
    direction -0.0255732 0.999672 0.00128215
    length 3.43865
    axis -0.000934958 0.0245693 1.46543 xyz
  end
  begin
    id 10
    name HEad
    direction -0.0472656 0.980052 0.19304
    length 5.12695
    axis -0.000934954 0.0245693 1.46543 xyz
    dof rx ry rz
  end
  begin
    id 11
    name LeftShoulder1Dummy
    direction 0.953098 0.301717 -0.023914
    length 3.68488
    axis -0.000934958 0.0245693 1.46543 xyz
  end
  begin
    id 12
    name LeftShoulder1
    direction 0.962466 0.271167 0.0112566
    length 3.13809
    axis -0.000934958 0.0245693 1.46543 xyz
    dof rx ry rz
  end
  begin
    id 13
    name LeftArm
    direction 0.999943 0.00455037 -0.00961766
    length 11.3419
    axis -23.1648 0.685459 1.22814 xyz
    dof rx ry rz
  end
  begin
    id 14
    name LeftForeArm
    direction 0.999332 0.0131969 0.0340885
    length 8.70632
    axis -9.90633 0.618216 0.0826942 xyz
    dof rx ry rz
  end
  begin
    id 15
    name LeftHand
    direction 0.994373 -0.0366703 0.0993905
    length 5.32135
    axis 0.00675269 0.680415 0.445699 xyz
    dof rx ry rz
  end
  begin
    id 16
    name RightShoulderDummy
    direction -0.967298 0.252589 -0.0230903
    length 3.68488
    axis -0.000934958 0.0245693 1.46543 xyz
  end
  begin
    id 17
    name RightShoulder
    direction -0.975062 0.221602 0.0120823
    length 3.13809
    axis 0.216257 0.0246515 1.45863 xyz
    dof rx ry rz
  end
  begin
    id 18
    name RightArm
    direction -0.99886 -0.00851186 -0.0469687
    length 10.3947
    axis -23.196 0.23503 -0.532632 xyz
    dof rx ry rz
  end
  begin
    id 19
    name RightForeArm
    direction -0.99909 0.00114866 0.0426317
    length 8.68355
    axis -9.91764 -0.134943 0.610517 xyz
    dof rx ry rz
  end
  begin
    id 20
    name RightHand
    direction -0.992888 -0.0489538 0.10852
    length 5.28593
    axis -0.00275396 -0.197403 0.246414 xyz
    dof rx ry rz
  end
  begin
    id 21
    name LeftUpLegDummy
    direction 1 -2.30186e-007 -8.31532e-007
    length 4.04083
    axis 0 0 0 xyz
  end
  begin
    id 22
    name LeftUpLeg
    direction -0.000920097 -1 2.79241e-006
    length 17.4221
    axis -3.48782 0.00143434 -0.0532288 xyz
    dof rx ry rz
  end
  begin
    id 23
    name LeftLeg
    direction -0.000920097 -1 2.7912e-006
    length 17.1239
    axis 3.68162 -0.00806512 -0.0529896 xyz
    dof rx ry rz
  end
  begin
    id 24
    name LeftFoot
    direction -2.57845e-005 -3.987e-007 1
    length 6.72091
    axis 3.02372e-005 -0.00147829 -0.214229 xyz
    dof rx ry rz
  end
  begin
    id 25
    name LeftToes
    direction 0.00813577 -0.00488255 0.999955
    length 3.85048
    axis 3.89895e-005 -0.0014783 -0.214229 xyz
    dof rx ry rz
  end
:hierarchy
  begin
    root RightUpLegDummy SpineDummy LeftUpLegDummy
    RightUpLegDummy RightUpLeg
    RightUpLeg RightLeg
    RightLeg RightFoot
    RightFoot RightToes
    SpineDummy Spine
    Spine Spine1
    Spine1 HEadDummy LeftShoulder1Dummy RightShoulderDummy
    HEadDummy HEad
    LeftShoulder1Dummy LeftShoulder1
    LeftShoulder1 LeftArm
    LeftArm LeftForeArm
    LeftForeArm LeftHand
    RightShoulderDummy RightShoulder
    RightShoulder RightArm
    RightArm RightForeArm
    RightForeArm RightHand
    LeftUpLegDummy LeftUpLeg
    LeftUpLeg LeftLeg
    LeftLeg LeftFoot
    LeftFoot LeftToes
  end

:SAMPLES-PER-SECOND 30
:FULLY-SPECIFIED
:DEGREES
49
root  -41.7666 34.8379 11.9229 -169.695 58.792 -179.702
RightUpLeg  -7.32087 -16.5815 -0.759052
RightLeg  2.85959 -1.66268 0.0311646
RightFoot  6.4768 0.0339984 -0.0337593
RightToes  -27.3527 -0.125508 -0.232039
Spine  -2.53949 -0.173868 0.267211
Spine1  -5.13206 -0.265941 1.15962
HEad  -68.3453 -0.892126 7.1424
LeftShoulder1  -1.94126e-019 -3.10601e-018 -2.51263e-017
LeftArm  -15.7608 24.328 -82.6397
LeftForeArm  31.6997 -14.1843 -2.38346
LeftHand  -0.445327 -1.17478 8.14632
RightShoulder  -4.96962e-017 0 -2.36833e-017
RightArm  -23.0573 -22.7455 74.2759
RightForeArm  58.5523 14.1462 1.20846
RightHand  -0.360527 -1.20742 -9.92115
LeftUpLeg  -7.71605 5.70948 1.84338
LeftLeg  3.7316 12.9454 0.0106404
LeftFoot  6.53406 -0.0875139 1.63576
LeftToes  -23.7936 1.9075e-006 4.29692e-008
50
root  -41.7722 34.8383 11.9304 -169.722 58.7748 -179.718
RightUpLeg  -7.31111 -16.5887 -0.75697
RightLeg  2.84264 -1.68196 0.0335506
RightFoot  6.48482 0.0341237 -0.0353322
RightToes  -27.333 -0.125172 -0.232039
Spine  -2.5399 -0.175833 0.275624
Spine1  -5.13312 -0.262922 1.17718
HEad  -68.3551 -0.822458 7.06241
LeftShoulder1  -1.94126e-019 -3.10601e-018 -2.51263e-017
LeftArm  -15.764 24.2882 -82.627
LeftForeArm  31.7837 -14.3412 -2.40723
LeftHand  -0.446348 -1.20202 8.14397
RightShoulder  -4.96962e-017 0 -2.36833e-017
RightArm  -23.0686 -22.682 74.3543
RightForeArm  58.4694 14.1791 1.20199
RightHand  -0.370211 -1.04484 -9.82676
LeftUpLeg  -7.7097 5.69727 1.84308
LeftLeg  3.71004 12.9542 0.0058169
LeftFoot  6.55876 -0.0882592 1.64274
LeftToes  -23.8447 1.9075e-006 4.29692e-008
51
root  -41.7791 34.8388 11.9408 -169.753 58.7599 -179.726
RightUpLeg  -7.29198 -16.6276 -0.752117
RightLeg  2.81689 -1.65833 0.0304202
RightFoot  6.49872 0.0342162 -0.0365571
RightToes  -27.2773 -0.124787 -0.232039
Spine  -2.54126 -0.178806 0.293674
Spine1  -5.13605 -0.275829 1.2179
HEad  -68.4426 -0.747109 6.85351
LeftShoulder1  -1.94126e-019 -3.10601e-018 -2.51263e-017
LeftArm  -15.7319 24.2515 -82.637
LeftForeArm  31.8095 -14.52 -2.43216
LeftHand  -0.44978 -1.22751 8.04185
RightShoulder  -4.96962e-017 0 -2.36833e-017
RightArm  -22.7765 -22.6513 74.4628
RightForeArm  58.8441 14.2578 1.18577
RightHand  -0.374108 -1.1431 -10.1507
LeftUpLeg  -7.68606 5.73763 1.84562
LeftLeg  3.66811 12.8946 -0.00356214
LeftFoot  6.59467 -0.0886721 1.64427
LeftToes  -23.8856 1.9075e-006 4.29692e-008
52
root  -41.7831 34.8398 11.9467 -169.77 58.7657 -179.73
RightUpLeg  -7.27586 -16.6109 -0.748338
RightLeg  2.78926 -1.6763 0.0332575
RightFoot  6.50229 0.0342518 -0.0371405
RightToes  -27.2339 -0.124359 -0.232039
Spine  -2.54208 -0.180664 0.306838
Spine1  -5.13774 -0.275566 1.2466
HEad  -68.47 -0.690943 6.7408
LeftShoulder1  -1.94126e-019 -3.10601e-018 -2.51263e-017
LeftArm  -15.6935 24.1985 -82.6667
LeftForeArm  31.8507 -14.5939 -2.44388
LeftHand  -0.450601 -1.20989 8.07639
RightShoulder  -4.96962e-017 0 -2.36833e-017
RightArm  -22.6271 -22.6021 74.535
RightForeArm  58.7668 14.3473 1.17339
RightHand  -0.375209 -1.1229 -10.1349
LeftUpLeg  -7.6634 5.72563 1.84495
LeftLeg  3.63237 12.9081 -0.0115456
LeftFoot  6.60445 -0.0892737 1.64854
LeftToes  -23.8818 1.9075e-006 4.29692e-008
53
root  -41.7899 34.8431 11.9576 -169.792 58.7988 -179.729
RightUpLeg  -7.25543 -16.5664 -0.744865
RightLeg  2.73766 -1.67629 0.0337772
RightFoot  6.54944 0.0342218 -0.0370099
RightToes  -27.2659 -0.123891 -0.232039
Spine  -2.52838 -0.18085 0.321816
Spine1  -5.11053 -0.274823 1.28097
HEad  -68.5835 -0.623927 6.59303
LeftShoulder1  -1.94126e-019 -3.10601e-018 -2.51263e-017
LeftArm  -15.6649 24.1317 -82.7187
LeftForeArm  31.8455 -14.8321 -2.4794
LeftHand  -0.450623 -1.20821 8.06372
RightShoulder  -4.96962e-017 0 -2.36833e-017
RightArm  -22.4904 -22.4799 74.7178
RightForeArm  58.5341 14.5195 1.15105
RightHand  -0.376466 -1.0883 -10.0476
LeftUpLeg  -7.62668 5.70017 1.84349
LeftLeg  3.56503 12.9623 -0.0266867
LeftFoot  6.64352 -0.0906582 1.66487
LeftToes  -23.8183 1.9075e-006 4.29692e-008
54
root  -41.7934 34.846 11.9636 -169.802 58.8368 -179.727
RightUpLeg  -7.2323 -16.5358 -0.743292
RightLeg  2.6881 -1.65664 0.0316375
RightFoot  6.58375 0.0341369 -0.0363724
RightToes  -27.24 -0.123388 -0.232039
Spine  -2.51998 -0.180395 0.333721
Spine1  -5.09345 -0.273832 1.30917
HEad  -68.6443 -0.588537 6.54001
LeftShoulder1  -1.94126e-019 -3.10601e-018 -2.51263e-017
LeftArm  -15.5822 24.0935 -82.7517
LeftForeArm  31.7871 -14.9353 -2.49232
LeftHand  -0.450607 -1.25541 8.03852
RightShoulder  -4.96962e-017 0 -2.36833e-017
RightArm  -22.1302 -22.4107 74.7789
RightForeArm  58.3804 14.6063 1.14062
RightHand  -0.371623 -1.10249 -10.1231
LeftUpLeg  -7.59105 5.75728 1.84714
LeftLeg  3.50669 12.94 -0.0396985
LeftFoot  6.68853 -0.0915265 1.67314
LeftToes  -23.8557 1.9075e-006 4.29692e-008
55
root  -41.7978 34.8472 11.9701 -169.808 58.896 -179.725
RightUpLeg  -7.21955 -16.4967 -0.74176
RightLeg  2.64093 -1.64638 0.0307124
RightFoot  6.6176 0.0340023 -0.0353527
RightToes  -27.2876 -0.122854 -0.232039
Spine  -2.5176 -0.179562 0.339786
Spine1  -5.0886 -0.273019 1.3244
HEad  -68.6474 -0.589294 6.54893
LeftShoulder1  -1.94126e-019 -3.10601e-018 -2.51263e-017
LeftArm  -15.5041 24.0387 -82.7995
LeftForeArm  31.9063 -15.0433 -2.50751
LeftHand  -0.449981 -1.26206 8.00313
RightShoulder  -4.96962e-017 0 -2.36833e-017
RightArm  -22.0874 -22.2908 74.921
RightForeArm  58.3813 14.6516 1.1341
RightHand  -0.372651 -1.05034 -10.0378
LeftUpLeg  -7.55656 5.80416 1.85018
LeftLeg  3.45293 12.9547 -0.051787
LeftFoot  6.70068 -0.092196 1.67837
LeftToes  -23.8212 1.9075e-006 4.29692e-008
56
root  -41.8007 34.8478 11.9746 -169.813 58.9661 -179.725
RightUpLeg  -7.21566 -16.4741 -0.741821
RightLeg  2.61294 -1.60773 0.0261725
RightFoot  6.64054 0.0338231 -0.0340755
RightToes  -27.3017 -0.122294 -0.232039
Spine  -2.51929 -0.178613 0.346398
Spine1  -5.09214 -0.272811 1.33998
HEad  -68.5604 -0.587631 6.53104
LeftShoulder1  -1.94126e-019 -3.10601e-018 -2.51263e-017
LeftArm  -15.4221 24.0066 -82.8545
LeftForeArm  31.9121 -15.1279 -2.51799
LeftHand  -0.448305 -1.23873 7.98761
RightShoulder  -4.96962e-017 0 -2.36833e-017
RightArm  -21.9219 -22.1961 75.0194
RightForeArm  58.2938 14.7161 1.12623
RightHand  -0.375714 -1.04503 -9.97485
LeftUpLeg  -7.52724 5.85208 1.85332
LeftLeg  3.41885 12.9705 -0.0594937
LeftFoot  6.71321 -0.0928617 1.68368
LeftToes  -23.824 1.9075e-006 4.29692e-008
57
root  -41.8016 34.848 11.9772 -169.816 59.0117 -179.725
RightUpLeg  -7.21786 -16.4383 -0.741057
RightLeg  2.60416 -1.58969 0.0249762
RightFoot  6.64511 0.0336043 -0.0326657
RightToes  -27.2425 -0.121713 -0.232039
Spine  -2.52341 -0.177809 0.353944
Spine1  -5.10056 -0.274091 1.35638
HEad  -68.4787 -0.585115 6.55549
LeftShoulder1  -1.94126e-019 -3.10601e-018 -2.51263e-017
LeftArm  -15.3842 23.9492 -82.9194
LeftForeArm  31.9023 -15.1312 -2.51898
LeftHand  -0.445806 -1.23523 8.00646
RightShoulder  -4.96962e-017 0 -2.36833e-017
RightArm  -21.7956 -22.1298 75.0945
RightForeArm  58.3813 14.7312 1.12276
RightHand  -0.380155 -1.0382 -10.0789
LeftUpLeg  -7.51089 5.81679 1.85136
LeftLeg  3.40587 13.0463 -0.0702705
LeftFoot  6.7264 -0.0939921 1.69642
LeftToes  -23.8138 1.9075e-006 4.29692e-008
58
root  -41.8018 34.8478 11.9784 -169.821 59.0498 -179.726
RightUpLeg  -7.23013 -16.4475 -0.743435
RightLeg  2.62172 -1.54514 0.020368
RightFoot  6.64407 0.033351 -0.0312479
RightToes  -27.2334 -0.121114 -0.232039
Spine  -2.53302 -0.177415 0.362152
Spine1  -5.1202 -0.275138 1.37271
HEad  -68.4041 -0.583886 6.57637
LeftShoulder1  -1.94126e-019 -3.10601e-018 -2.51263e-017
LeftArm  -15.3593 23.9135 -83.0017
LeftForeArm  32.0408 -15.1635 -2.52442
LeftHand  -0.444557 -1.31147 7.99766
RightShoulder  -4.96962e-017 0 -2.36833e-017
RightArm  -21.7124 -22.1035 75.1655
RightForeArm  58.8644 14.7023 1.11974
RightHand  -0.393004 -1.06041 -10.4742
LeftUpLeg  -7.51001 5.83459 1.85271
LeftLeg  3.41982 13.0712 -0.0723019
LeftFoot  6.72465 -0.0943682 1.69772
LeftToes  -23.8393 1.9075e-006 4.29692e-008
